<svg xmlns="http://www.w3.org/2000/svg" width="72" height="72" viewBox="0 0 72 72">
    <g data-name="Group 7418">
        <path data-name="Path 1849" d="M49.875 32.418c14.167 0 21.876-11.667 21.876-21.876V9.5A16.935 16.935 0 0 0 75.5 5.542a17.3 17.3 0 0 1-4.375 1.25 8.106 8.106 0 0 0 3.333-4.167 19.11 19.11 0 0 1-4.79 1.875A7.441 7.441 0 0 0 64.042 2a7.828 7.828 0 0 0-7.709 7.709 4.062 4.062 0 0 0 .208 1.667A21.54 21.54 0 0 1 40.708 3.25a7.979 7.979 0 0 0-1.042 3.958A8.278 8.278 0 0 0 43 13.667a7.023 7.023 0 0 1-3.542-1.042 7.614 7.614 0 0 0 6.25 7.5 6.423 6.423 0 0 1-2.083.208 3.545 3.545 0 0 1-1.458-.208 7.893 7.893 0 0 0 7.292 5.417 15.73 15.73 0 0 1-9.584 3.333A5.768 5.768 0 0 1 38 28.668a19.665 19.665 0 0 0 11.875 3.75" transform="translate(-21 19)" style="fill:#fff;fill-rule:evenodd"/>
        <path data-name="Rectangle 580" style="fill:none" d="M0 0h72v72H0z"/>
    </g>
</svg>
