<svg xmlns="http://www.w3.org/2000/svg" width="72" height="72" viewBox="0 0 72 72">
    <g data-name="Group 7419">
        <path data-name="Path 1849" d="M54.47 44.188c19.649 0 30.34-16.182 30.34-30.34V12.4a23.488 23.488 0 0 0 5.2-5.49 23.987 23.987 0 0 1-6.068 1.734 11.242 11.242 0 0 0 4.623-5.779 26.5 26.5 0 0 1-6.646 2.6A10.32 10.32 0 0 0 74.119 2a10.856 10.856 0 0 0-10.691 10.691A5.634 5.634 0 0 0 63.717 15 29.875 29.875 0 0 1 41.756 3.734a11.066 11.066 0 0 0-1.445 5.49 11.481 11.481 0 0 0 4.623 8.958 9.741 9.741 0 0 1-4.912-1.445 10.56 10.56 0 0 0 8.669 10.4 8.908 8.908 0 0 1-2.89.289 4.917 4.917 0 0 1-2.023-.289 10.947 10.947 0 0 0 10.113 7.513A21.817 21.817 0 0 1 40.6 39.275a8 8 0 0 1-2.6-.289 27.274 27.274 0 0 0 16.47 5.2" transform="translate(-28 13)" style="fill:#fff;fill-rule:evenodd"/>
        <path data-name="Rectangle 579" style="fill:none" d="M0 0h72v72H0z"/>
    </g>
</svg>
